<?xml version="1.0" encoding="UTF-8"?>
<svg xmlns="http://www.w3.org/2000/svg" xmlns:xlink="http://www.w3.org/1999/xlink" width="64pt" height="64pt" viewBox="0 0 64 64" version="1.1">
<defs>
<linearGradient id="linear0" gradientUnits="userSpaceOnUse" x1="8.44" y1="61.99" x2="445.11" y2="498.66" gradientTransform="matrix(0.13511,0,0,0.136551,0.0720608,-0.26764)">
<stop offset="0" style="stop-color:rgb(0.392157%,46.27451%,100%);stop-opacity:1;"/>
<stop offset="0.24" style="stop-color:rgb(0.392157%,47.058824%,100%);stop-opacity:1;"/>
<stop offset="0.73" style="stop-color:rgb(0%,63.921569%,100%);stop-opacity:1;"/>
<stop offset="0.95" style="stop-color:rgb(0%,67.843137%,93.72549%);stop-opacity:1;"/>
</linearGradient>
<linearGradient id="linear1" gradientUnits="userSpaceOnUse" x1="8.44" y1="61.99" x2="445.11" y2="498.66" gradientTransform="matrix(0.13511,0,0,0.136551,0.0720608,-0.26764)">
<stop offset="0" style="stop-color:rgb(0.392157%,46.27451%,100%);stop-opacity:1;"/>
<stop offset="0.24" style="stop-color:rgb(0.392157%,47.058824%,100%);stop-opacity:1;"/>
<stop offset="0.73" style="stop-color:rgb(0%,63.921569%,100%);stop-opacity:1;"/>
<stop offset="0.95" style="stop-color:rgb(0%,67.843137%,93.72549%);stop-opacity:1;"/>
</linearGradient>
<linearGradient id="linear2" gradientUnits="userSpaceOnUse" x1="8.44" y1="61.99" x2="445.11" y2="498.66" gradientTransform="matrix(0.13511,0,0,0.136551,0.0720608,-0.26764)">
<stop offset="0" style="stop-color:rgb(0.392157%,46.27451%,100%);stop-opacity:1;"/>
<stop offset="0.24" style="stop-color:rgb(0.392157%,47.058824%,100%);stop-opacity:1;"/>
<stop offset="0.73" style="stop-color:rgb(0%,63.921569%,100%);stop-opacity:1;"/>
<stop offset="0.95" style="stop-color:rgb(0%,67.843137%,93.72549%);stop-opacity:1;"/>
</linearGradient>
<linearGradient id="linear3" gradientUnits="userSpaceOnUse" x1="8.44" y1="61.99" x2="445.11" y2="498.66" gradientTransform="matrix(0.13511,0,0,0.136551,0.0720608,-0.26764)">
<stop offset="0" style="stop-color:rgb(0.392157%,46.27451%,100%);stop-opacity:1;"/>
<stop offset="0.24" style="stop-color:rgb(0.392157%,47.058824%,100%);stop-opacity:1;"/>
<stop offset="0.73" style="stop-color:rgb(0%,63.921569%,100%);stop-opacity:1;"/>
<stop offset="0.95" style="stop-color:rgb(0%,67.843137%,93.72549%);stop-opacity:1;"/>
</linearGradient>
<linearGradient id="linear4" gradientUnits="userSpaceOnUse" x1="8.44" y1="61.99" x2="445.11" y2="498.66" gradientTransform="matrix(0.13511,0,0,0.136551,0.0720608,-0.26764)">
<stop offset="0" style="stop-color:rgb(0.392157%,46.27451%,100%);stop-opacity:1;"/>
<stop offset="0.24" style="stop-color:rgb(0.392157%,47.058824%,100%);stop-opacity:1;"/>
<stop offset="0.73" style="stop-color:rgb(0%,63.921569%,100%);stop-opacity:1;"/>
<stop offset="0.95" style="stop-color:rgb(0%,67.843137%,93.72549%);stop-opacity:1;"/>
</linearGradient>
<linearGradient id="linear5" gradientUnits="userSpaceOnUse" x1="8.44" y1="61.99" x2="445.11" y2="498.66" gradientTransform="matrix(0.13511,0,0,0.136551,0.0720608,-0.26764)">
<stop offset="0" style="stop-color:rgb(0.392157%,46.27451%,100%);stop-opacity:1;"/>
<stop offset="0.24" style="stop-color:rgb(0.392157%,47.058824%,100%);stop-opacity:1;"/>
<stop offset="0.73" style="stop-color:rgb(0%,63.921569%,100%);stop-opacity:1;"/>
<stop offset="0.95" style="stop-color:rgb(0%,67.843137%,93.72549%);stop-opacity:1;"/>
</linearGradient>
<linearGradient id="linear6" gradientUnits="userSpaceOnUse" x1="8.44" y1="61.99" x2="445.11" y2="498.66" gradientTransform="matrix(0.13511,0,0,0.136551,0.0720608,-0.26764)">
<stop offset="0" style="stop-color:rgb(0.392157%,46.27451%,100%);stop-opacity:1;"/>
<stop offset="0.24" style="stop-color:rgb(0.392157%,47.058824%,100%);stop-opacity:1;"/>
<stop offset="0.73" style="stop-color:rgb(0%,63.921569%,100%);stop-opacity:1;"/>
<stop offset="0.95" style="stop-color:rgb(0%,67.843137%,93.72549%);stop-opacity:1;"/>
</linearGradient>
<linearGradient id="linear7" gradientUnits="userSpaceOnUse" x1="8.44" y1="61.99" x2="445.11" y2="498.66" gradientTransform="matrix(0.13511,0,0,0.136551,0.0720608,-0.26764)">
<stop offset="0" style="stop-color:rgb(0.392157%,46.27451%,100%);stop-opacity:1;"/>
<stop offset="0.24" style="stop-color:rgb(0.392157%,47.058824%,100%);stop-opacity:1;"/>
<stop offset="0.73" style="stop-color:rgb(0%,63.921569%,100%);stop-opacity:1;"/>
<stop offset="0.95" style="stop-color:rgb(0%,67.843137%,93.72549%);stop-opacity:1;"/>
</linearGradient>
<linearGradient id="linear8" gradientUnits="userSpaceOnUse" x1="8.44" y1="61.99" x2="445.11" y2="498.66" gradientTransform="matrix(0.13511,0,0,0.136551,0.0720608,-0.26764)">
<stop offset="0" style="stop-color:rgb(0.392157%,46.27451%,100%);stop-opacity:1;"/>
<stop offset="0.24" style="stop-color:rgb(0.392157%,47.058824%,100%);stop-opacity:1;"/>
<stop offset="0.73" style="stop-color:rgb(0%,63.921569%,100%);stop-opacity:1;"/>
<stop offset="0.95" style="stop-color:rgb(0%,67.843137%,93.72549%);stop-opacity:1;"/>
</linearGradient>
<linearGradient id="linear9" gradientUnits="userSpaceOnUse" x1="8.44" y1="61.99" x2="445.11" y2="498.66" gradientTransform="matrix(0.13511,0,0,0.136551,0.0720608,-0.26764)">
<stop offset="0" style="stop-color:rgb(0.392157%,46.27451%,100%);stop-opacity:1;"/>
<stop offset="0.24" style="stop-color:rgb(0.392157%,47.058824%,100%);stop-opacity:1;"/>
<stop offset="0.73" style="stop-color:rgb(0%,63.921569%,100%);stop-opacity:1;"/>
<stop offset="0.95" style="stop-color:rgb(0%,67.843137%,93.72549%);stop-opacity:1;"/>
</linearGradient>
<linearGradient id="linear10" gradientUnits="userSpaceOnUse" x1="8.44" y1="61.99" x2="445.11" y2="498.66" gradientTransform="matrix(0.13511,0,0,0.136551,0.0720608,-0.26764)">
<stop offset="0" style="stop-color:rgb(0.392157%,46.27451%,100%);stop-opacity:1;"/>
<stop offset="0.24" style="stop-color:rgb(0.392157%,47.058824%,100%);stop-opacity:1;"/>
<stop offset="0.73" style="stop-color:rgb(0%,63.921569%,100%);stop-opacity:1;"/>
<stop offset="0.95" style="stop-color:rgb(0%,67.843137%,93.72549%);stop-opacity:1;"/>
</linearGradient>
<linearGradient id="linear11" gradientUnits="userSpaceOnUse" x1="8.44" y1="61.99" x2="445.11" y2="498.66" gradientTransform="matrix(0.13511,0,0,0.136551,0.0720608,-0.26764)">
<stop offset="0" style="stop-color:rgb(0.392157%,46.27451%,100%);stop-opacity:1;"/>
<stop offset="0.24" style="stop-color:rgb(0.392157%,47.058824%,100%);stop-opacity:1;"/>
<stop offset="0.73" style="stop-color:rgb(0%,63.921569%,100%);stop-opacity:1;"/>
<stop offset="0.95" style="stop-color:rgb(0%,67.843137%,93.72549%);stop-opacity:1;"/>
</linearGradient>
<linearGradient id="linear12" gradientUnits="userSpaceOnUse" x1="8.44" y1="61.99" x2="445.11" y2="498.66" gradientTransform="matrix(0.13511,0,0,0.136551,0.0720608,-0.26764)">
<stop offset="0" style="stop-color:rgb(0.392157%,46.27451%,100%);stop-opacity:1;"/>
<stop offset="0.24" style="stop-color:rgb(0.392157%,47.058824%,100%);stop-opacity:1;"/>
<stop offset="0.73" style="stop-color:rgb(0%,63.921569%,100%);stop-opacity:1;"/>
<stop offset="0.95" style="stop-color:rgb(0%,67.843137%,93.72549%);stop-opacity:1;"/>
</linearGradient>
<linearGradient id="linear13" gradientUnits="userSpaceOnUse" x1="8.44" y1="61.99" x2="445.11" y2="498.66" gradientTransform="matrix(0.13511,0,0,0.136551,0.0720608,-0.26764)">
<stop offset="0" style="stop-color:rgb(0.392157%,46.27451%,100%);stop-opacity:1;"/>
<stop offset="0.24" style="stop-color:rgb(0.392157%,47.058824%,100%);stop-opacity:1;"/>
<stop offset="0.73" style="stop-color:rgb(0%,63.921569%,100%);stop-opacity:1;"/>
<stop offset="0.95" style="stop-color:rgb(0%,67.843137%,93.72549%);stop-opacity:1;"/>
</linearGradient>
<linearGradient id="linear14" gradientUnits="userSpaceOnUse" x1="8.44" y1="61.99" x2="445.11" y2="498.66" gradientTransform="matrix(0.13511,0,0,0.136551,0.0720608,-0.26764)">
<stop offset="0" style="stop-color:rgb(0.392157%,46.27451%,100%);stop-opacity:1;"/>
<stop offset="0.24" style="stop-color:rgb(0.392157%,47.058824%,100%);stop-opacity:1;"/>
<stop offset="0.73" style="stop-color:rgb(0%,63.921569%,100%);stop-opacity:1;"/>
<stop offset="0.95" style="stop-color:rgb(0%,67.843137%,93.72549%);stop-opacity:1;"/>
</linearGradient>
<linearGradient id="linear15" gradientUnits="userSpaceOnUse" x1="8.44" y1="61.99" x2="445.11" y2="498.66" gradientTransform="matrix(0.13511,0,0,0.136551,0.0720608,-0.26764)">
<stop offset="0" style="stop-color:rgb(0.392157%,46.27451%,100%);stop-opacity:1;"/>
<stop offset="0.24" style="stop-color:rgb(0.392157%,47.058824%,100%);stop-opacity:1;"/>
<stop offset="0.73" style="stop-color:rgb(0%,63.921569%,100%);stop-opacity:1;"/>
<stop offset="0.95" style="stop-color:rgb(0%,67.843137%,93.72549%);stop-opacity:1;"/>
</linearGradient>
<linearGradient id="linear16" gradientUnits="userSpaceOnUse" x1="8.44" y1="61.99" x2="445.11" y2="498.66" gradientTransform="matrix(0.13511,0,0,0.136551,0.0720608,-0.26764)">
<stop offset="0" style="stop-color:rgb(0.392157%,46.27451%,100%);stop-opacity:1;"/>
<stop offset="0.24" style="stop-color:rgb(0.392157%,47.058824%,100%);stop-opacity:1;"/>
<stop offset="0.73" style="stop-color:rgb(0%,63.921569%,100%);stop-opacity:1;"/>
<stop offset="0.95" style="stop-color:rgb(0%,67.843137%,93.72549%);stop-opacity:1;"/>
</linearGradient>
<linearGradient id="linear17" gradientUnits="userSpaceOnUse" x1="8.44" y1="61.99" x2="445.11" y2="498.66" gradientTransform="matrix(0.13511,0,0,0.136551,0.0720608,-0.26764)">
<stop offset="0" style="stop-color:rgb(0.392157%,46.27451%,100%);stop-opacity:1;"/>
<stop offset="0.24" style="stop-color:rgb(0.392157%,47.058824%,100%);stop-opacity:1;"/>
<stop offset="0.73" style="stop-color:rgb(0%,63.921569%,100%);stop-opacity:1;"/>
<stop offset="0.95" style="stop-color:rgb(0%,67.843137%,93.72549%);stop-opacity:1;"/>
</linearGradient>
<linearGradient id="linear18" gradientUnits="userSpaceOnUse" x1="8.44" y1="61.99" x2="445.11" y2="498.66" gradientTransform="matrix(0.13511,0,0,0.136551,0.0720608,-0.26764)">
<stop offset="0" style="stop-color:rgb(0.392157%,46.27451%,100%);stop-opacity:1;"/>
<stop offset="0.24" style="stop-color:rgb(0.392157%,47.058824%,100%);stop-opacity:1;"/>
<stop offset="0.73" style="stop-color:rgb(0%,63.921569%,100%);stop-opacity:1;"/>
<stop offset="0.95" style="stop-color:rgb(0%,67.843137%,93.72549%);stop-opacity:1;"/>
</linearGradient>
<linearGradient id="linear19" gradientUnits="userSpaceOnUse" x1="8.44" y1="61.99" x2="445.11" y2="498.66" gradientTransform="matrix(0.13511,0,0,0.136551,0.0720608,-0.26764)">
<stop offset="0" style="stop-color:rgb(0.392157%,46.27451%,100%);stop-opacity:1;"/>
<stop offset="0.24" style="stop-color:rgb(0.392157%,47.058824%,100%);stop-opacity:1;"/>
<stop offset="0.73" style="stop-color:rgb(0%,63.921569%,100%);stop-opacity:1;"/>
<stop offset="0.95" style="stop-color:rgb(0%,67.843137%,93.72549%);stop-opacity:1;"/>
</linearGradient>
<linearGradient id="linear20" gradientUnits="userSpaceOnUse" x1="8.44" y1="61.99" x2="445.11" y2="498.66" gradientTransform="matrix(0.13511,0,0,0.136551,0.0720608,-0.26764)">
<stop offset="0" style="stop-color:rgb(0.392157%,46.27451%,100%);stop-opacity:1;"/>
<stop offset="0.24" style="stop-color:rgb(0.392157%,47.058824%,100%);stop-opacity:1;"/>
<stop offset="0.73" style="stop-color:rgb(0%,63.921569%,100%);stop-opacity:1;"/>
<stop offset="0.95" style="stop-color:rgb(0%,67.843137%,93.72549%);stop-opacity:1;"/>
</linearGradient>
<linearGradient id="linear21" gradientUnits="userSpaceOnUse" x1="8.44" y1="61.99" x2="445.11" y2="498.66" gradientTransform="matrix(0.13511,0,0,0.136551,0.0720608,-0.26764)">
<stop offset="0" style="stop-color:rgb(0.392157%,46.27451%,100%);stop-opacity:1;"/>
<stop offset="0.24" style="stop-color:rgb(0.392157%,47.058824%,100%);stop-opacity:1;"/>
<stop offset="0.73" style="stop-color:rgb(0%,63.921569%,100%);stop-opacity:1;"/>
<stop offset="0.95" style="stop-color:rgb(0%,67.843137%,93.72549%);stop-opacity:1;"/>
</linearGradient>
<linearGradient id="linear22" gradientUnits="userSpaceOnUse" x1="8.44" y1="61.99" x2="445.11" y2="498.66" gradientTransform="matrix(0.13511,0,0,0.136551,0.0720608,-0.26764)">
<stop offset="0" style="stop-color:rgb(0.392157%,46.27451%,100%);stop-opacity:1;"/>
<stop offset="0.24" style="stop-color:rgb(0.392157%,47.058824%,100%);stop-opacity:1;"/>
<stop offset="0.73" style="stop-color:rgb(0%,63.921569%,100%);stop-opacity:1;"/>
<stop offset="0.95" style="stop-color:rgb(0%,67.843137%,93.72549%);stop-opacity:1;"/>
</linearGradient>
<linearGradient id="linear23" gradientUnits="userSpaceOnUse" x1="8.44" y1="61.99" x2="445.11" y2="498.66" gradientTransform="matrix(0.13511,0,0,0.136551,0.0720608,-0.26764)">
<stop offset="0" style="stop-color:rgb(0.392157%,46.27451%,100%);stop-opacity:1;"/>
<stop offset="0.24" style="stop-color:rgb(0.392157%,47.058824%,100%);stop-opacity:1;"/>
<stop offset="0.73" style="stop-color:rgb(0%,63.921569%,100%);stop-opacity:1;"/>
<stop offset="0.95" style="stop-color:rgb(0%,67.843137%,93.72549%);stop-opacity:1;"/>
</linearGradient>
<linearGradient id="linear24" gradientUnits="userSpaceOnUse" x1="8.44" y1="61.99" x2="445.11" y2="498.66" gradientTransform="matrix(0.13511,0,0,0.136551,0.0707972,-0.268404)">
<stop offset="0" style="stop-color:rgb(0.392157%,46.27451%,100%);stop-opacity:1;"/>
<stop offset="0.24" style="stop-color:rgb(0.392157%,47.058824%,100%);stop-opacity:1;"/>
<stop offset="0.73" style="stop-color:rgb(0%,63.921569%,100%);stop-opacity:1;"/>
<stop offset="0.95" style="stop-color:rgb(0%,67.843137%,93.72549%);stop-opacity:1;"/>
</linearGradient>
<linearGradient id="linear25" gradientUnits="userSpaceOnUse" x1="8.44" y1="61.99" x2="445.11" y2="498.66" gradientTransform="matrix(0.13511,0,0,0.136551,0.0707972,-0.268404)">
<stop offset="0" style="stop-color:rgb(0.392157%,46.27451%,100%);stop-opacity:1;"/>
<stop offset="0.24" style="stop-color:rgb(0.392157%,47.058824%,100%);stop-opacity:1;"/>
<stop offset="0.73" style="stop-color:rgb(0%,63.921569%,100%);stop-opacity:1;"/>
<stop offset="0.95" style="stop-color:rgb(0%,67.843137%,93.72549%);stop-opacity:1;"/>
</linearGradient>
<linearGradient id="linear26" gradientUnits="userSpaceOnUse" x1="8.44" y1="61.99" x2="445.11" y2="498.66" gradientTransform="matrix(0.13511,0,0,0.136551,0.0720608,-0.26764)">
<stop offset="0" style="stop-color:rgb(0.392157%,46.27451%,100%);stop-opacity:1;"/>
<stop offset="0.24" style="stop-color:rgb(0.392157%,47.058824%,100%);stop-opacity:1;"/>
<stop offset="0.73" style="stop-color:rgb(0%,63.921569%,100%);stop-opacity:1;"/>
<stop offset="0.95" style="stop-color:rgb(0%,67.843137%,93.72549%);stop-opacity:1;"/>
</linearGradient>
<linearGradient id="linear27" gradientUnits="userSpaceOnUse" x1="8.44" y1="61.99" x2="445.11" y2="498.66" gradientTransform="matrix(0.13511,0.000000000000000016,-0.000000000000000008,0.136551,0.0706508,-0.267312)">
<stop offset="0" style="stop-color:rgb(0.392157%,46.27451%,100%);stop-opacity:1;"/>
<stop offset="0.24" style="stop-color:rgb(0.392157%,47.058824%,100%);stop-opacity:1;"/>
<stop offset="0.73" style="stop-color:rgb(0%,63.921569%,100%);stop-opacity:1;"/>
<stop offset="0.95" style="stop-color:rgb(0%,67.843137%,93.72549%);stop-opacity:1;"/>
</linearGradient>
<linearGradient id="linear28" gradientUnits="userSpaceOnUse" x1="8.44" y1="61.99" x2="445.11" y2="498.66" gradientTransform="matrix(0.13511,0.000000000000000016,-0.000000000000000008,0.136551,0.0706508,-0.267312)">
<stop offset="0" style="stop-color:rgb(0.392157%,46.27451%,100%);stop-opacity:1;"/>
<stop offset="0.24" style="stop-color:rgb(0.392157%,47.058824%,100%);stop-opacity:1;"/>
<stop offset="0.73" style="stop-color:rgb(0%,63.921569%,100%);stop-opacity:1;"/>
<stop offset="0.95" style="stop-color:rgb(0%,67.843137%,93.72549%);stop-opacity:1;"/>
</linearGradient>
<linearGradient id="linear29" gradientUnits="userSpaceOnUse" x1="8.44" y1="61.99" x2="445.11" y2="498.66" gradientTransform="matrix(0.13511,0,0,0.136551,0.0720608,-0.26764)">
<stop offset="0" style="stop-color:rgb(0.392157%,46.27451%,100%);stop-opacity:1;"/>
<stop offset="0.24" style="stop-color:rgb(0.392157%,47.058824%,100%);stop-opacity:1;"/>
<stop offset="0.73" style="stop-color:rgb(0%,63.921569%,100%);stop-opacity:1;"/>
<stop offset="0.95" style="stop-color:rgb(0%,67.843137%,93.72549%);stop-opacity:1;"/>
</linearGradient>
<linearGradient id="linear30" gradientUnits="userSpaceOnUse" x1="8.44" y1="61.99" x2="445.11" y2="498.66" gradientTransform="matrix(0.13511,0.000000000000000008,-0.000000000000000008,0.136551,0.0747827,-0.267913)">
<stop offset="0" style="stop-color:rgb(0.392157%,46.27451%,100%);stop-opacity:1;"/>
<stop offset="0.24" style="stop-color:rgb(0.392157%,47.058824%,100%);stop-opacity:1;"/>
<stop offset="0.73" style="stop-color:rgb(0%,63.921569%,100%);stop-opacity:1;"/>
<stop offset="0.95" style="stop-color:rgb(0%,67.843137%,93.72549%);stop-opacity:1;"/>
</linearGradient>
<linearGradient id="linear31" gradientUnits="userSpaceOnUse" x1="8.44" y1="61.99" x2="445.11" y2="498.66" gradientTransform="matrix(0.13511,0.000000000000000008,-0.000000000000000008,0.136551,0.0747827,-0.267913)">
<stop offset="0" style="stop-color:rgb(0.392157%,46.27451%,100%);stop-opacity:1;"/>
<stop offset="0.24" style="stop-color:rgb(0.392157%,47.058824%,100%);stop-opacity:1;"/>
<stop offset="0.73" style="stop-color:rgb(0%,63.921569%,100%);stop-opacity:1;"/>
<stop offset="0.95" style="stop-color:rgb(0%,67.843137%,93.72549%);stop-opacity:1;"/>
</linearGradient>
<linearGradient id="linear32" gradientUnits="userSpaceOnUse" x1="8.44" y1="61.99" x2="445.11" y2="498.66" gradientTransform="matrix(0.13511,0,0,0.136551,0.0720608,-0.26764)">
<stop offset="0" style="stop-color:rgb(0.392157%,46.27451%,100%);stop-opacity:1;"/>
<stop offset="0.24" style="stop-color:rgb(0.392157%,47.058824%,100%);stop-opacity:1;"/>
<stop offset="0.73" style="stop-color:rgb(0%,63.921569%,100%);stop-opacity:1;"/>
<stop offset="0.95" style="stop-color:rgb(0%,67.843137%,93.72549%);stop-opacity:1;"/>
</linearGradient>
</defs>
<g id="surface1">
<path style=" stroke:none;fill-rule:nonzero;fill:rgb(0%,0%,0%);fill-opacity:1;" d="M 0.0703125 32.738281 L 0.0703125 63.933594 L 10.714844 63.933594 L 10.714844 32.738281 Z M 8.054688 61.242188 L 2.730469 61.242188 L 2.730469 35.433594 L 8.054688 35.433594 Z M 8.054688 61.242188 "/>
<path style=" stroke:none;fill-rule:nonzero;fill:rgb(13.72549%,12.156863%,12.54902%);fill-opacity:1;" d="M 10.78125 64 L 0.00390625 64 L 0.00390625 32.671875 L 10.78125 32.671875 Z M 0.140625 63.863281 L 10.648438 63.863281 L 10.648438 32.808594 L 0.140625 32.808594 Z M 8.121094 61.316406 L 2.664062 61.316406 L 2.664062 35.371094 L 8.121094 35.371094 Z M 2.800781 61.179688 L 7.988281 61.179688 L 7.988281 35.507812 L 2.800781 35.507812 Z M 2.800781 61.179688 "/>
<path style=" stroke:none;fill-rule:nonzero;fill:rgb(0%,0%,0%);fill-opacity:1;" d="M 17.898438 37.042969 L 17.898438 63.933594 L 28.542969 63.933594 L 28.542969 37.042969 Z M 25.878906 61.242188 L 20.558594 61.242188 L 20.558594 39.730469 L 25.878906 39.730469 Z M 25.878906 61.242188 "/>
<path style=" stroke:none;fill-rule:nonzero;fill:rgb(13.72549%,12.156863%,12.54902%);fill-opacity:1;" d="M 28.609375 64 L 17.832031 64 L 17.832031 36.972656 L 28.609375 36.972656 Z M 17.964844 63.863281 L 28.472656 63.863281 L 28.472656 37.109375 L 17.964844 37.109375 Z M 25.949219 61.316406 L 20.492188 61.316406 L 20.492188 39.664062 L 25.949219 39.664062 Z M 20.625 61.179688 L 25.8125 61.179688 L 25.8125 39.800781 L 20.625 39.800781 Z M 20.625 61.179688 "/>
<path style=" stroke:none;fill-rule:nonzero;fill:rgb(0%,0%,0%);fill-opacity:1;" d="M 35.589844 27.09375 L 35.589844 63.933594 L 46.234375 63.933594 L 46.234375 27.09375 Z M 43.578125 61.242188 L 38.25 61.242188 L 38.25 29.78125 L 43.578125 29.78125 Z M 43.578125 61.242188 "/>
<path style=" stroke:none;fill-rule:nonzero;fill:rgb(13.72549%,12.156863%,12.54902%);fill-opacity:1;" d="M 46.300781 64 L 35.523438 64 L 35.523438 27.023438 L 46.300781 27.023438 Z M 35.660156 63.863281 L 46.167969 63.863281 L 46.167969 27.160156 L 35.660156 27.160156 Z M 43.640625 61.316406 L 38.183594 61.316406 L 38.183594 29.714844 L 43.640625 29.714844 Z M 38.320312 61.179688 L 43.507812 61.179688 L 43.507812 29.851562 L 38.320312 29.851562 Z M 38.320312 61.179688 "/>
<path style=" stroke:none;fill-rule:nonzero;fill:rgb(0%,0%,0%);fill-opacity:1;" d="M 53.285156 28.976562 L 53.285156 63.933594 L 63.925781 63.933594 L 63.925781 28.976562 Z M 61.265625 61.242188 L 55.945312 61.242188 L 55.945312 31.664062 L 61.265625 31.664062 Z M 61.265625 61.242188 "/>
<path style=" stroke:none;fill-rule:nonzero;fill:rgb(13.72549%,12.156863%,12.54902%);fill-opacity:1;" d="M 63.996094 64 L 53.21875 64 L 53.21875 28.90625 L 63.996094 28.90625 Z M 53.351562 63.863281 L 63.859375 63.863281 L 63.859375 29.042969 L 53.351562 29.042969 Z M 61.332031 61.316406 L 55.871094 61.316406 L 55.871094 31.597656 L 61.328125 31.597656 Z M 56.007812 61.179688 L 61.191406 61.179688 L 61.191406 31.734375 L 56.007812 31.734375 Z M 56.007812 61.179688 "/>
<path style=" stroke:none;fill-rule:nonzero;fill:rgb(0%,0%,0%);fill-opacity:1;" d="M 5.527344 6.253906 C 2.464844 6.253906 0.0703125 8.671875 0.0703125 11.632812 C 0.0703125 14.589844 2.464844 17.007812 5.527344 17.007812 C 8.453125 17.007812 10.980469 14.589844 10.980469 11.632812 C 10.980469 8.671875 8.585938 6.253906 5.527344 6.253906 Z M 5.527344 14.320312 C 3.929688 14.320312 2.730469 13.109375 2.730469 11.632812 C 2.730469 10.152344 3.929688 8.941406 5.527344 8.941406 C 6.988281 8.941406 8.320312 10.152344 8.320312 11.632812 C 8.320312 13.109375 7.125 14.320312 5.527344 14.320312 Z M 5.527344 14.320312 "/>
<path style=" stroke:none;fill-rule:nonzero;fill:rgb(13.72549%,12.156863%,12.54902%);fill-opacity:1;" d="M 5.527344 17.074219 C 2.480469 17.074219 0.00390625 14.632812 0.00390625 11.632812 C 0.00390625 8.628906 2.480469 6.183594 5.527344 6.183594 C 6.992188 6.175781 8.402344 6.75 9.449219 7.789062 C 10.472656 8.800781 11.050781 10.183594 11.046875 11.632812 C 11.046875 14.582031 8.519531 17.074219 5.527344 17.074219 Z M 5.527344 6.316406 C 2.558594 6.320312 0.140625 8.703125 0.140625 11.632812 C 0.140625 14.558594 2.558594 16.9375 5.527344 16.9375 C 8.445312 16.9375 10.914062 14.507812 10.914062 11.628906 C 10.914062 10.21875 10.351562 8.867188 9.355469 7.882812 C 8.332031 6.871094 6.957031 6.308594 5.527344 6.320312 Z M 5.527344 14.386719 C 3.921875 14.386719 2.664062 13.175781 2.664062 11.628906 C 2.664062 10.082031 3.921875 8.882812 5.527344 8.882812 C 7.050781 8.882812 8.386719 10.167969 8.386719 11.636719 C 8.386719 13.175781 7.128906 14.386719 5.527344 14.386719 Z M 5.527344 9.007812 C 3.996094 9.007812 2.800781 10.160156 2.800781 11.628906 C 2.800781 13.097656 3.996094 14.25 5.527344 14.25 C 7.054688 14.25 8.253906 13.101562 8.253906 11.632812 C 8.253906 10.234375 6.980469 9.019531 5.527344 9.019531 Z M 5.527344 9.007812 "/>
<path style=" stroke:none;fill-rule:nonzero;fill:rgb(0%,0%,0%);fill-opacity:1;" d="M 27.34375 17.007812 C 24.550781 17.007812 22.289062 19.296875 22.285156 22.117188 C 22.285156 24.941406 24.550781 27.226562 27.34375 27.226562 C 30.132812 27.226562 32.398438 24.941406 32.398438 22.117188 C 32.398438 19.296875 30.136719 17.007812 27.34375 17.007812 Z M 27.34375 24.671875 C 26.019531 24.675781 24.949219 23.589844 24.945312 22.253906 C 24.945312 20.914062 26.019531 19.832031 27.34375 19.832031 C 28.664062 19.832031 29.738281 20.914062 29.738281 22.253906 C 29.742188 22.894531 29.488281 23.511719 29.039062 23.964844 C 28.589844 24.421875 27.980469 24.675781 27.34375 24.671875 Z M 27.34375 24.671875 "/>
<path style=" stroke:none;fill-rule:nonzero;fill:rgb(13.72549%,12.156863%,12.54902%);fill-opacity:1;" d="M 27.34375 27.296875 C 24.515625 27.296875 22.21875 24.976562 22.21875 22.117188 C 22.21875 19.257812 24.511719 16.9375 27.34375 16.9375 C 30.171875 16.9375 32.46875 19.257812 32.464844 22.117188 C 32.460938 24.976562 30.171875 27.289062 27.34375 27.296875 Z M 27.34375 17.078125 C 24.964844 17.082031 22.921875 18.78125 22.457031 21.140625 C 21.996094 23.496094 23.246094 25.855469 25.445312 26.773438 C 27.644531 27.691406 30.179688 26.914062 31.5 24.914062 C 32.820312 22.917969 32.558594 20.253906 30.878906 18.554688 C 29.941406 17.605469 28.667969 17.074219 27.34375 17.074219 Z M 27.34375 24.742188 C 25.984375 24.742188 24.878906 23.628906 24.878906 22.253906 C 24.878906 20.878906 25.980469 19.761719 27.34375 19.761719 C 28.703125 19.761719 29.804688 20.878906 29.804688 22.253906 C 29.804688 23.625 28.703125 24.738281 27.34375 24.742188 Z M 27.34375 19.902344 C 26.058594 19.898438 25.015625 20.953125 25.015625 22.253906 C 25.015625 23.554688 26.058594 24.605469 27.34375 24.605469 C 28.628906 24.605469 29.671875 23.550781 29.671875 22.253906 C 29.667969 20.953125 28.628906 19.902344 27.34375 19.902344 Z M 27.34375 19.902344 "/>
<path style=" stroke:none;fill-rule:nonzero;fill:rgb(0%,0%,0%);fill-opacity:1;" d="M 41.445312 0.0664062 C 38.503906 0.0664062 36.121094 2.476562 36.121094 5.445312 C 36.121094 8.417969 38.503906 10.824219 41.445312 10.824219 C 44.382812 10.824219 46.765625 8.417969 46.765625 5.445312 C 46.757812 2.480469 44.378906 0.078125 41.445312 0.0664062 Z M 41.445312 8.269531 C 39.976562 8.269531 38.785156 7.066406 38.785156 5.578125 C 38.785156 4.09375 39.976562 2.890625 41.445312 2.890625 C 42.914062 2.890625 44.105469 4.097656 44.105469 5.582031 C 44.101562 7.0625 42.914062 8.265625 41.445312 8.269531 Z M 41.445312 8.269531 "/>
<path style=" stroke:none;fill-rule:nonzero;fill:rgb(13.72549%,12.156863%,12.54902%);fill-opacity:1;" d="M 41.445312 10.894531 C 38.46875 10.894531 36.054688 8.453125 36.054688 5.445312 C 36.054688 2.4375 38.46875 0 41.445312 0 C 44.421875 0 46.835938 2.4375 46.832031 5.445312 C 46.828125 8.453125 44.417969 10.890625 41.445312 10.894531 Z M 41.445312 0.136719 C 38.542969 0.136719 36.191406 2.515625 36.191406 5.445312 C 36.191406 8.378906 38.542969 10.757812 41.445312 10.757812 C 44.347656 10.757812 46.699219 8.378906 46.699219 5.445312 C 46.691406 2.515625 44.34375 0.144531 41.445312 0.140625 Z M 41.445312 8.335938 C 39.9375 8.335938 38.71875 7.101562 38.71875 5.578125 C 38.71875 4.058594 39.941406 2.824219 41.445312 2.824219 C 42.953125 2.824219 44.171875 4.058594 44.171875 5.582031 C 44.167969 7.101562 42.949219 8.332031 41.445312 8.335938 Z M 41.445312 2.960938 C 40.011719 2.960938 38.851562 4.132812 38.851562 5.582031 C 38.851562 7.027344 40.015625 8.203125 41.445312 8.203125 C 42.878906 8.199219 44.039062 7.027344 44.039062 5.582031 C 44.035156 4.132812 42.875 2.960938 41.445312 2.960938 Z M 41.445312 2.960938 "/>
<path style=" stroke:none;fill-rule:nonzero;fill:rgb(0%,0%,0%);fill-opacity:1;" d="M 58.472656 11.363281 C 55.535156 11.363281 53.152344 13.769531 53.148438 16.742188 C 53.148438 19.710938 55.53125 22.121094 58.472656 22.121094 C 61.414062 22.121094 63.796875 19.710938 63.792969 16.738281 C 63.785156 13.773438 61.410156 11.371094 58.472656 11.363281 Z M 58.472656 19.5625 C 57.003906 19.5625 55.8125 18.359375 55.8125 16.875 C 55.8125 15.390625 57.003906 14.1875 58.472656 14.1875 C 59.9375 14.1875 61.132812 15.261719 61.132812 16.875 C 61.128906 18.359375 59.941406 19.558594 58.472656 19.5625 Z M 58.472656 19.5625 "/>
<path style=" stroke:none;fill-rule:nonzero;fill:rgb(13.72549%,12.156863%,12.54902%);fill-opacity:1;" d="M 58.472656 22.1875 C 55.496094 22.1875 53.082031 19.75 53.082031 16.742188 C 53.082031 13.730469 55.496094 11.292969 58.472656 11.292969 C 61.449219 11.292969 63.863281 13.730469 63.863281 16.738281 C 63.859375 19.746094 61.449219 22.183594 58.472656 22.1875 Z M 58.472656 11.429688 C 55.570312 11.429688 53.21875 13.808594 53.21875 16.742188 C 53.21875 19.675781 55.570312 22.050781 58.472656 22.050781 C 61.375 22.050781 63.726562 19.671875 63.726562 16.738281 C 63.722656 13.808594 61.375 11.433594 58.472656 11.429688 Z M 58.472656 19.632812 C 56.96875 19.632812 55.746094 18.398438 55.746094 16.875 C 55.746094 15.351562 56.96875 14.117188 58.472656 14.117188 C 59.203125 14.101562 59.90625 14.386719 60.421875 14.90625 C 60.9375 15.429688 61.21875 16.140625 61.203125 16.875 C 61.199219 18.398438 59.980469 19.628906 58.472656 19.632812 Z M 58.472656 14.253906 C 57.042969 14.253906 55.878906 15.429688 55.878906 16.875 C 55.878906 18.320312 57.042969 19.496094 58.472656 19.496094 C 59.90625 19.496094 61.066406 18.320312 61.066406 16.875 C 61.066406 15.355469 59.976562 14.253906 58.472656 14.253906 Z M 58.472656 14.253906 "/>
<path style=" stroke:none;fill-rule:nonzero;fill:rgb(0%,0%,0%);fill-opacity:1;" d="M 9.324219 14.457031 L 10.511719 12.050781 L 24.320312 19.007812 L 23.132812 21.414062 Z M 9.324219 14.457031 "/>
<path style=" stroke:none;fill-rule:nonzero;fill:rgb(13.72549%,12.156863%,12.54902%);fill-opacity:1;" d="M 23.164062 21.507812 L 9.234375 14.488281 L 10.476562 11.957031 L 24.40625 18.976562 Z M 9.414062 14.425781 L 23.101562 21.324219 L 24.230469 19.039062 L 10.542969 12.140625 Z M 9.414062 14.425781 "/>
<path style=" stroke:none;fill-rule:nonzero;fill:rgb(0%,0%,0%);fill-opacity:1;" d="M 29.023438 18.042969 L 37.382812 7.410156 L 39.464844 9.082031 L 31.105469 19.714844 Z M 29.023438 18.042969 "/>
<path style=" stroke:none;fill-rule:nonzero;fill:rgb(13.72549%,12.156863%,12.54902%);fill-opacity:1;" d="M 31.117188 19.8125 L 28.929688 18.054688 L 37.371094 7.3125 L 39.5625 9.074219 L 39.519531 9.125 Z M 29.121094 18.03125 L 31.097656 19.617188 L 39.371094 9.089844 L 37.394531 7.507812 Z M 29.121094 18.03125 "/>
<path style=" stroke:none;fill-rule:nonzero;fill:rgb(0%,0%,0%);fill-opacity:1;" d="M 44.117188 8.074219 L 45.648438 5.875 L 55.757812 13.082031 L 54.226562 15.28125 Z M 44.117188 8.074219 "/>
<path style=" stroke:none;fill-rule:nonzero;fill:rgb(13.72549%,12.156863%,12.54902%);fill-opacity:1;" d="M 54.242188 15.371094 L 44.019531 8.089844 L 45.632812 5.777344 L 55.851562 13.0625 Z M 44.207031 8.054688 L 54.207031 15.183594 L 55.664062 13.097656 L 45.664062 5.96875 Z M 44.207031 8.054688 "/>
<path style=" stroke:none;fill-rule:nonzero;fill:url(#linear0);" d="M 0.0703125 32.738281 L 0.0703125 63.933594 L 10.714844 63.933594 L 10.714844 32.738281 Z M 8.054688 61.242188 L 2.730469 61.242188 L 2.730469 35.433594 L 8.054688 35.433594 Z M 8.054688 61.242188 "/>
<path style=" stroke:none;fill-rule:nonzero;fill:url(#linear1);" d="M 0.0703125 32.738281 L 0.0703125 63.933594 L 10.714844 63.933594 L 10.714844 32.738281 Z M 8.054688 61.242188 L 2.730469 61.242188 L 2.730469 35.433594 L 8.054688 35.433594 Z M 8.054688 61.242188 "/>
<path style=" stroke:none;fill-rule:nonzero;fill:url(#linear2);" d="M 10.78125 64 L 0.00390625 64 L 0.00390625 32.671875 L 10.78125 32.671875 Z M 0.140625 63.863281 L 10.648438 63.863281 L 10.648438 32.808594 L 0.140625 32.808594 Z M 8.121094 61.316406 L 2.664062 61.316406 L 2.664062 35.371094 L 8.121094 35.371094 Z M 2.800781 61.179688 L 7.988281 61.179688 L 7.988281 35.507812 L 2.800781 35.507812 Z M 2.800781 61.179688 "/>
<path style=" stroke:none;fill-rule:nonzero;fill:url(#linear3);" d="M 17.898438 37.042969 L 17.898438 63.933594 L 28.542969 63.933594 L 28.542969 37.042969 Z M 25.878906 61.242188 L 20.558594 61.242188 L 20.558594 39.730469 L 25.878906 39.730469 Z M 25.878906 61.242188 "/>
<path style=" stroke:none;fill-rule:nonzero;fill:url(#linear4);" d="M 17.898438 37.042969 L 17.898438 63.933594 L 28.542969 63.933594 L 28.542969 37.042969 Z M 25.878906 61.242188 L 20.558594 61.242188 L 20.558594 39.730469 L 25.878906 39.730469 Z M 25.878906 61.242188 "/>
<path style=" stroke:none;fill-rule:nonzero;fill:url(#linear5);" d="M 28.609375 64 L 17.832031 64 L 17.832031 36.972656 L 28.609375 36.972656 Z M 17.964844 63.863281 L 28.472656 63.863281 L 28.472656 37.109375 L 17.964844 37.109375 Z M 25.949219 61.316406 L 20.492188 61.316406 L 20.492188 39.664062 L 25.949219 39.664062 Z M 20.625 61.179688 L 25.8125 61.179688 L 25.8125 39.800781 L 20.625 39.800781 Z M 20.625 61.179688 "/>
<path style=" stroke:none;fill-rule:nonzero;fill:url(#linear6);" d="M 35.589844 27.09375 L 35.589844 63.933594 L 46.234375 63.933594 L 46.234375 27.09375 Z M 43.578125 61.242188 L 38.25 61.242188 L 38.25 29.78125 L 43.578125 29.78125 Z M 43.578125 61.242188 "/>
<path style=" stroke:none;fill-rule:nonzero;fill:url(#linear7);" d="M 35.589844 27.09375 L 35.589844 63.933594 L 46.234375 63.933594 L 46.234375 27.09375 Z M 43.578125 61.242188 L 38.25 61.242188 L 38.25 29.78125 L 43.578125 29.78125 Z M 43.578125 61.242188 "/>
<path style=" stroke:none;fill-rule:nonzero;fill:url(#linear8);" d="M 46.300781 64 L 35.523438 64 L 35.523438 27.023438 L 46.300781 27.023438 Z M 35.660156 63.863281 L 46.167969 63.863281 L 46.167969 27.160156 L 35.660156 27.160156 Z M 43.640625 61.316406 L 38.183594 61.316406 L 38.183594 29.714844 L 43.640625 29.714844 Z M 38.320312 61.179688 L 43.507812 61.179688 L 43.507812 29.851562 L 38.320312 29.851562 Z M 38.320312 61.179688 "/>
<path style=" stroke:none;fill-rule:nonzero;fill:url(#linear9);" d="M 53.285156 28.976562 L 53.285156 63.933594 L 63.925781 63.933594 L 63.925781 28.976562 Z M 61.265625 61.242188 L 55.945312 61.242188 L 55.945312 31.664062 L 61.265625 31.664062 Z M 61.265625 61.242188 "/>
<path style=" stroke:none;fill-rule:nonzero;fill:url(#linear10);" d="M 53.285156 28.976562 L 53.285156 63.933594 L 63.925781 63.933594 L 63.925781 28.976562 Z M 61.265625 61.242188 L 55.945312 61.242188 L 55.945312 31.664062 L 61.265625 31.664062 Z M 61.265625 61.242188 "/>
<path style=" stroke:none;fill-rule:nonzero;fill:url(#linear11);" d="M 63.996094 64 L 53.21875 64 L 53.21875 28.90625 L 63.996094 28.90625 Z M 53.351562 63.863281 L 63.859375 63.863281 L 63.859375 29.042969 L 53.351562 29.042969 Z M 61.332031 61.316406 L 55.871094 61.316406 L 55.871094 31.597656 L 61.328125 31.597656 Z M 56.007812 61.179688 L 61.191406 61.179688 L 61.191406 31.734375 L 56.007812 31.734375 Z M 56.007812 61.179688 "/>
<path style=" stroke:none;fill-rule:nonzero;fill:url(#linear12);" d="M 5.527344 6.253906 C 2.464844 6.253906 0.0703125 8.671875 0.0703125 11.632812 C 0.0703125 14.589844 2.464844 17.007812 5.527344 17.007812 C 8.453125 17.007812 10.980469 14.589844 10.980469 11.632812 C 10.980469 8.671875 8.585938 6.253906 5.527344 6.253906 Z M 5.527344 14.320312 C 3.929688 14.320312 2.730469 13.109375 2.730469 11.632812 C 2.730469 10.152344 3.929688 8.941406 5.527344 8.941406 C 6.988281 8.941406 8.320312 10.152344 8.320312 11.632812 C 8.320312 13.109375 7.125 14.320312 5.527344 14.320312 Z M 5.527344 14.320312 "/>
<path style=" stroke:none;fill-rule:nonzero;fill:url(#linear13);" d="M 5.527344 6.253906 C 2.464844 6.253906 0.0703125 8.671875 0.0703125 11.632812 C 0.0703125 14.589844 2.464844 17.007812 5.527344 17.007812 C 8.453125 17.007812 10.980469 14.589844 10.980469 11.632812 C 10.980469 8.671875 8.585938 6.253906 5.527344 6.253906 Z M 5.527344 14.320312 C 3.929688 14.320312 2.730469 13.109375 2.730469 11.632812 C 2.730469 10.152344 3.929688 8.941406 5.527344 8.941406 C 6.988281 8.941406 8.320312 10.152344 8.320312 11.632812 C 8.320312 13.109375 7.125 14.320312 5.527344 14.320312 Z M 5.527344 14.320312 "/>
<path style=" stroke:none;fill-rule:nonzero;fill:url(#linear14);" d="M 5.527344 17.074219 C 2.480469 17.074219 0.00390625 14.632812 0.00390625 11.632812 C 0.00390625 8.628906 2.480469 6.183594 5.527344 6.183594 C 6.992188 6.175781 8.402344 6.75 9.449219 7.789062 C 10.472656 8.800781 11.050781 10.183594 11.046875 11.632812 C 11.046875 14.582031 8.519531 17.074219 5.527344 17.074219 Z M 5.527344 6.316406 C 2.558594 6.320312 0.140625 8.703125 0.140625 11.632812 C 0.140625 14.558594 2.558594 16.9375 5.527344 16.9375 C 8.445312 16.9375 10.914062 14.507812 10.914062 11.628906 C 10.914062 10.21875 10.351562 8.867188 9.355469 7.882812 C 8.332031 6.871094 6.957031 6.308594 5.527344 6.320312 Z M 5.527344 14.386719 C 3.921875 14.386719 2.664062 13.175781 2.664062 11.628906 C 2.664062 10.082031 3.921875 8.882812 5.527344 8.882812 C 7.050781 8.882812 8.386719 10.167969 8.386719 11.636719 C 8.386719 13.175781 7.128906 14.386719 5.527344 14.386719 Z M 5.527344 9.007812 C 3.996094 9.007812 2.800781 10.160156 2.800781 11.628906 C 2.800781 13.097656 3.996094 14.25 5.527344 14.25 C 7.054688 14.25 8.253906 13.101562 8.253906 11.632812 C 8.253906 10.234375 6.980469 9.019531 5.527344 9.019531 Z M 5.527344 9.007812 "/>
<path style=" stroke:none;fill-rule:nonzero;fill:url(#linear15);" d="M 27.34375 17.007812 C 24.550781 17.007812 22.289062 19.296875 22.285156 22.117188 C 22.285156 24.941406 24.550781 27.226562 27.34375 27.226562 C 30.132812 27.226562 32.398438 24.941406 32.398438 22.117188 C 32.398438 19.296875 30.136719 17.007812 27.34375 17.007812 Z M 27.34375 24.671875 C 26.019531 24.675781 24.949219 23.589844 24.945312 22.253906 C 24.945312 20.914062 26.019531 19.832031 27.34375 19.832031 C 28.664062 19.832031 29.738281 20.914062 29.738281 22.253906 C 29.742188 22.894531 29.488281 23.511719 29.039062 23.964844 C 28.589844 24.421875 27.980469 24.675781 27.34375 24.671875 Z M 27.34375 24.671875 "/>
<path style=" stroke:none;fill-rule:nonzero;fill:url(#linear16);" d="M 27.34375 17.007812 C 24.550781 17.007812 22.289062 19.296875 22.285156 22.117188 C 22.285156 24.941406 24.550781 27.226562 27.34375 27.226562 C 30.132812 27.226562 32.398438 24.941406 32.398438 22.117188 C 32.398438 19.296875 30.136719 17.007812 27.34375 17.007812 Z M 27.34375 24.671875 C 26.019531 24.675781 24.949219 23.589844 24.945312 22.253906 C 24.945312 20.914062 26.019531 19.832031 27.34375 19.832031 C 28.664062 19.832031 29.738281 20.914062 29.738281 22.253906 C 29.742188 22.894531 29.488281 23.511719 29.039062 23.964844 C 28.589844 24.421875 27.980469 24.675781 27.34375 24.671875 Z M 27.34375 24.671875 "/>
<path style=" stroke:none;fill-rule:nonzero;fill:url(#linear17);" d="M 27.34375 27.296875 C 24.515625 27.296875 22.21875 24.976562 22.21875 22.117188 C 22.21875 19.257812 24.511719 16.9375 27.34375 16.9375 C 30.171875 16.9375 32.46875 19.257812 32.464844 22.117188 C 32.460938 24.976562 30.171875 27.289062 27.34375 27.296875 Z M 27.34375 17.078125 C 24.964844 17.082031 22.921875 18.78125 22.457031 21.140625 C 21.996094 23.496094 23.246094 25.855469 25.445312 26.773438 C 27.644531 27.691406 30.179688 26.914062 31.5 24.914062 C 32.820312 22.917969 32.558594 20.253906 30.878906 18.554688 C 29.941406 17.605469 28.667969 17.074219 27.34375 17.074219 Z M 27.34375 24.742188 C 25.984375 24.742188 24.878906 23.628906 24.878906 22.253906 C 24.878906 20.878906 25.980469 19.761719 27.34375 19.761719 C 28.703125 19.761719 29.804688 20.878906 29.804688 22.253906 C 29.804688 23.625 28.703125 24.738281 27.34375 24.742188 Z M 27.34375 19.902344 C 26.058594 19.898438 25.015625 20.953125 25.015625 22.253906 C 25.015625 23.554688 26.058594 24.605469 27.34375 24.605469 C 28.628906 24.605469 29.671875 23.550781 29.671875 22.253906 C 29.667969 20.953125 28.628906 19.902344 27.34375 19.902344 Z M 27.34375 19.902344 "/>
<path style=" stroke:none;fill-rule:nonzero;fill:url(#linear18);" d="M 41.445312 0.0664062 C 38.503906 0.0664062 36.121094 2.476562 36.121094 5.445312 C 36.121094 8.417969 38.503906 10.824219 41.445312 10.824219 C 44.382812 10.824219 46.765625 8.417969 46.765625 5.445312 C 46.757812 2.480469 44.378906 0.078125 41.445312 0.0664062 Z M 41.445312 8.269531 C 39.976562 8.269531 38.785156 7.066406 38.785156 5.578125 C 38.785156 4.09375 39.976562 2.890625 41.445312 2.890625 C 42.914062 2.890625 44.105469 4.097656 44.105469 5.582031 C 44.101562 7.0625 42.914062 8.265625 41.445312 8.269531 Z M 41.445312 8.269531 "/>
<path style=" stroke:none;fill-rule:nonzero;fill:url(#linear19);" d="M 41.445312 0.0664062 C 38.503906 0.0664062 36.121094 2.476562 36.121094 5.445312 C 36.121094 8.417969 38.503906 10.824219 41.445312 10.824219 C 44.382812 10.824219 46.765625 8.417969 46.765625 5.445312 C 46.757812 2.480469 44.378906 0.078125 41.445312 0.0664062 Z M 41.445312 8.269531 C 39.976562 8.269531 38.785156 7.066406 38.785156 5.578125 C 38.785156 4.09375 39.976562 2.890625 41.445312 2.890625 C 42.914062 2.890625 44.105469 4.097656 44.105469 5.582031 C 44.101562 7.0625 42.914062 8.265625 41.445312 8.269531 Z M 41.445312 8.269531 "/>
<path style=" stroke:none;fill-rule:nonzero;fill:url(#linear20);" d="M 41.445312 10.894531 C 38.46875 10.894531 36.054688 8.453125 36.054688 5.445312 C 36.054688 2.4375 38.46875 0 41.445312 0 C 44.421875 0 46.835938 2.4375 46.832031 5.445312 C 46.828125 8.453125 44.417969 10.890625 41.445312 10.894531 Z M 41.445312 0.136719 C 38.542969 0.136719 36.191406 2.515625 36.191406 5.445312 C 36.191406 8.378906 38.542969 10.757812 41.445312 10.757812 C 44.347656 10.757812 46.699219 8.378906 46.699219 5.445312 C 46.691406 2.515625 44.34375 0.144531 41.445312 0.140625 Z M 41.445312 8.335938 C 39.9375 8.335938 38.71875 7.101562 38.71875 5.578125 C 38.71875 4.058594 39.941406 2.824219 41.445312 2.824219 C 42.953125 2.824219 44.171875 4.058594 44.171875 5.582031 C 44.167969 7.101562 42.949219 8.332031 41.445312 8.335938 Z M 41.445312 2.960938 C 40.011719 2.960938 38.851562 4.132812 38.851562 5.582031 C 38.851562 7.027344 40.015625 8.203125 41.445312 8.203125 C 42.878906 8.199219 44.039062 7.027344 44.039062 5.582031 C 44.035156 4.132812 42.875 2.960938 41.445312 2.960938 Z M 41.445312 2.960938 "/>
<path style=" stroke:none;fill-rule:nonzero;fill:url(#linear21);" d="M 58.472656 11.363281 C 55.535156 11.363281 53.152344 13.769531 53.148438 16.742188 C 53.148438 19.710938 55.53125 22.121094 58.472656 22.121094 C 61.414062 22.121094 63.796875 19.710938 63.792969 16.738281 C 63.785156 13.773438 61.410156 11.371094 58.472656 11.363281 Z M 58.472656 19.5625 C 57.003906 19.5625 55.8125 18.359375 55.8125 16.875 C 55.8125 15.390625 57.003906 14.1875 58.472656 14.1875 C 59.9375 14.1875 61.132812 15.261719 61.132812 16.875 C 61.128906 18.359375 59.941406 19.558594 58.472656 19.5625 Z M 58.472656 19.5625 "/>
<path style=" stroke:none;fill-rule:nonzero;fill:url(#linear22);" d="M 58.472656 11.363281 C 55.535156 11.363281 53.152344 13.769531 53.148438 16.742188 C 53.148438 19.710938 55.53125 22.121094 58.472656 22.121094 C 61.414062 22.121094 63.796875 19.710938 63.792969 16.738281 C 63.785156 13.773438 61.410156 11.371094 58.472656 11.363281 Z M 58.472656 19.5625 C 57.003906 19.5625 55.8125 18.359375 55.8125 16.875 C 55.8125 15.390625 57.003906 14.1875 58.472656 14.1875 C 59.9375 14.1875 61.132812 15.261719 61.132812 16.875 C 61.128906 18.359375 59.941406 19.558594 58.472656 19.5625 Z M 58.472656 19.5625 "/>
<path style=" stroke:none;fill-rule:nonzero;fill:url(#linear23);" d="M 58.472656 22.1875 C 55.496094 22.1875 53.082031 19.75 53.082031 16.742188 C 53.082031 13.730469 55.496094 11.292969 58.472656 11.292969 C 61.449219 11.292969 63.863281 13.730469 63.863281 16.738281 C 63.859375 19.746094 61.449219 22.183594 58.472656 22.1875 Z M 58.472656 11.429688 C 55.570312 11.429688 53.21875 13.808594 53.21875 16.742188 C 53.21875 19.675781 55.570312 22.050781 58.472656 22.050781 C 61.375 22.050781 63.726562 19.671875 63.726562 16.738281 C 63.722656 13.808594 61.375 11.433594 58.472656 11.429688 Z M 58.472656 19.632812 C 56.96875 19.632812 55.746094 18.398438 55.746094 16.875 C 55.746094 15.351562 56.96875 14.117188 58.472656 14.117188 C 59.203125 14.101562 59.90625 14.386719 60.421875 14.90625 C 60.9375 15.429688 61.21875 16.140625 61.203125 16.875 C 61.199219 18.398438 59.980469 19.628906 58.472656 19.632812 Z M 58.472656 14.253906 C 57.042969 14.253906 55.878906 15.429688 55.878906 16.875 C 55.878906 18.320312 57.042969 19.496094 58.472656 19.496094 C 59.90625 19.496094 61.066406 18.320312 61.066406 16.875 C 61.066406 15.355469 59.976562 14.253906 58.472656 14.253906 Z M 58.472656 14.253906 "/>
<path style=" stroke:none;fill-rule:nonzero;fill:url(#linear24);" d="M 9.324219 14.457031 L 10.511719 12.050781 L 24.320312 19.007812 L 23.132812 21.414062 Z M 9.324219 14.457031 "/>
<path style=" stroke:none;fill-rule:nonzero;fill:url(#linear25);" d="M 9.324219 14.457031 L 10.511719 12.050781 L 24.320312 19.007812 L 23.132812 21.414062 Z M 9.324219 14.457031 "/>
<path style=" stroke:none;fill-rule:nonzero;fill:url(#linear26);" d="M 23.164062 21.507812 L 9.234375 14.488281 L 10.476562 11.957031 L 24.40625 18.976562 Z M 9.414062 14.425781 L 23.101562 21.324219 L 24.230469 19.039062 L 10.542969 12.140625 Z M 9.414062 14.425781 "/>
<path style=" stroke:none;fill-rule:nonzero;fill:url(#linear27);" d="M 29.023438 18.042969 L 37.382812 7.410156 L 39.464844 9.082031 L 31.105469 19.714844 Z M 29.023438 18.042969 "/>
<path style=" stroke:none;fill-rule:nonzero;fill:url(#linear28);" d="M 29.023438 18.042969 L 37.382812 7.410156 L 39.464844 9.082031 L 31.105469 19.714844 Z M 29.023438 18.042969 "/>
<path style=" stroke:none;fill-rule:nonzero;fill:url(#linear29);" d="M 31.117188 19.8125 L 28.929688 18.054688 L 37.371094 7.3125 L 39.5625 9.074219 L 39.519531 9.125 Z M 29.121094 18.03125 L 31.097656 19.617188 L 39.371094 9.089844 L 37.394531 7.507812 Z M 29.121094 18.03125 "/>
<path style=" stroke:none;fill-rule:nonzero;fill:url(#linear30);" d="M 44.117188 8.074219 L 45.648438 5.875 L 55.757812 13.082031 L 54.226562 15.28125 Z M 44.117188 8.074219 "/>
<path style=" stroke:none;fill-rule:nonzero;fill:url(#linear31);" d="M 44.117188 8.074219 L 45.648438 5.875 L 55.757812 13.082031 L 54.226562 15.28125 Z M 44.117188 8.074219 "/>
<path style=" stroke:none;fill-rule:nonzero;fill:url(#linear32);" d="M 54.242188 15.371094 L 44.019531 8.089844 L 45.632812 5.777344 L 55.851562 13.0625 Z M 44.207031 8.054688 L 54.207031 15.183594 L 55.664062 13.097656 L 45.664062 5.96875 Z M 44.207031 8.054688 "/>
</g>
</svg>
