<svg id="Capa_1" data-name="Capa 1" xmlns="http://www.w3.org/2000/svg" xmlns:xlink="http://www.w3.org/1999/xlink" viewBox="0 0 473.62 468.69"><defs><style>.cls-1{fill:#231f20;}.cls-2{fill:url(#linear-gradient);}.cls-3{fill:url(#linear-gradient-25);}.cls-4{fill:url(#linear-gradient-28);}.cls-5{fill:url(#linear-gradient-31);}</style><linearGradient id="linear-gradient" x1="8.44" y1="61.99" x2="445.11" y2="498.66" gradientUnits="userSpaceOnUse"><stop offset="0" stop-color="#0176ff"/><stop offset="0.24" stop-color="#0178ff"/><stop offset="0.73" stop-color="#00a3ff"/><stop offset="0.95" stop-color="#00adef"/></linearGradient><linearGradient id="linear-gradient-25" x1="8.44" y1="61.99" x2="445.11" y2="498.66" gradientTransform="translate(180.07 -42.01) rotate(63.5)" xlink:href="#linear-gradient"/><linearGradient id="linear-gradient-28" x1="8.44" y1="61.99" x2="445.11" y2="498.66" gradientTransform="translate(174.91 -159.76) rotate(51.54)" xlink:href="#linear-gradient"/><linearGradient id="linear-gradient-31" x1="8.44" y1="61.99" x2="445.11" y2="498.66" gradientTransform="translate(221.23 -267.95) rotate(54.8)" xlink:href="#linear-gradient"/></defs><path d="M0,241.72V470.15H78.77V241.72ZM59.08,450.46H19.69v-189H59.08Z" transform="translate(0.5 -1.96)"/><path class="cls-1" d="M79.27,470.65H-.5V241.22H79.27Zm-78.77-1H78.27V242.22H.5ZM59.58,451H19.19v-190H59.58Zm-39.39-1H58.58v-188H20.19Z" transform="translate(0.5 -1.96)"/><path d="M131.94,273.23V470.15h78.77V273.23ZM191,450.46H151.63V292.92H191Z" transform="translate(0.5 -1.96)"/><path class="cls-1" d="M211.21,470.65H131.44V272.73h79.77Zm-78.77-1h77.77V273.73H132.44ZM191.52,451H151.13V292.42h40.39Zm-39.39-1h38.39V293.42H152.13Z" transform="translate(0.5 -1.96)"/><path d="M262.89,200.37V470.15h78.77V200.37ZM322,450.46H282.58V220.06H322Z" transform="translate(0.5 -1.96)"/><path class="cls-1" d="M342.16,470.65H262.39V199.87h79.77Zm-78.77-1h77.77V200.87H263.39ZM322.47,451H282.08V219.56h40.39Zm-39.39-1h38.39V220.56H283.08Z" transform="translate(0.5 -1.96)"/><path d="M393.85,214.15v256h78.76v-256Zm59.07,236.31H413.54V233.85h39.38Z" transform="translate(0.5 -1.96)"/><path class="cls-1" d="M473.12,470.65H393.35v-257h79.77Zm-78.77-1h77.77v-255H394.35ZM453.42,451H413V233.35h40.38ZM414,450h38.38V234.35H414Z" transform="translate(0.5 -1.96)"/><path d="M40.37,47.75C17.72,47.75,0,65.48,0,87.14s17.72,39.38,40.37,39.38c21.66,0,40.37-17.72,40.37-39.38S63,47.75,40.37,47.75Zm0,59.08c-11.82,0-20.68-8.86-20.68-19.69s8.86-19.69,20.68-19.69c10.83,0,20.68,8.86,20.68,19.69S52.19,106.83,40.37,106.83Z" transform="translate(0.5 -1.96)"/><path class="cls-1" d="M40.37,127C17.83,127-.5,109.13-.5,87.14S17.83,47.25,40.37,47.25A41.1,41.1,0,0,1,69.4,59,39.24,39.24,0,0,1,81.24,87.14C81.24,108.76,62.52,127,40.37,127Zm0-78.77C18.39,48.25.5,65.7.5,87.14S18.39,126,40.37,126c21.61,0,39.87-17.8,39.87-38.88A38.25,38.25,0,0,0,68.7,59.68,40.11,40.11,0,0,0,40.37,48.25Zm0,59.08c-11.88,0-21.18-8.87-21.18-20.19S28.49,67,40.37,67c11.28,0,21.18,9.43,21.18,20.19C61.55,98.46,52.24,107.33,40.37,107.33Zm0-39.38c-11.32,0-20.18,8.43-20.18,19.19s8.86,19.19,20.18,19.19S60.55,97.9,60.55,87.14C60.55,76.92,51.12,68,40.37,68Z" transform="translate(0.5 -1.96)"/><path d="M201.85,126.52a37.42,37.42,0,1,0,37.41,37.42A37.4,37.4,0,0,0,201.85,126.52Zm0,56.13a17.73,17.73,0,1,1,17.72-17.73A17.66,17.66,0,0,1,201.85,182.65Z" transform="translate(0.5 -1.96)"/><path class="cls-1" d="M201.85,201.85a37.92,37.92,0,1,1,37.91-37.91A38,38,0,0,1,201.85,201.85Zm0-74.83A36.91,36.91,0,1,0,228,137.83,37,37,0,0,0,201.85,127Zm0,56.13a18.23,18.23,0,1,1,18.22-18.23A18.25,18.25,0,0,1,201.85,183.15Zm0-35.45a17.23,17.23,0,1,0,17.22,17.22A17.25,17.25,0,0,0,201.85,147.7Z" transform="translate(0.5 -1.96)"/><path d="M306.21,2.46A39.39,39.39,0,1,0,345.6,41.85,39.5,39.5,0,0,0,306.21,2.46Zm0,60.06a19.69,19.69,0,1,1,19.7-19.69A19.75,19.75,0,0,1,306.21,62.52Z" transform="translate(0.5 -1.96)"/><path class="cls-1" d="M306.21,81.73A39.89,39.89,0,1,1,346.1,41.85,39.93,39.93,0,0,1,306.21,81.73Zm0-78.77A38.89,38.89,0,1,0,345.1,41.85,38.93,38.93,0,0,0,306.21,3Zm0,60.06a20.19,20.19,0,1,1,20.2-20.19A20.22,20.22,0,0,1,306.21,63Zm0-39.38a19.19,19.19,0,1,0,19.2,19.19A19.21,19.21,0,0,0,306.21,23.64Z" transform="translate(0.5 -1.96)"/><path d="M432.25,85.17a39.39,39.39,0,1,0,39.38,39.38A39.5,39.5,0,0,0,432.25,85.17Zm0,60.06a19.69,19.69,0,1,1,0-39.38c10.83,0,19.69,7.87,19.69,19.69A19.75,19.75,0,0,1,432.25,145.23Z" transform="translate(0.5 -1.96)"/><path class="cls-1" d="M432.25,164.44a39.89,39.89,0,1,1,39.88-39.89A39.93,39.93,0,0,1,432.25,164.44Zm0-78.77a38.89,38.89,0,1,0,38.88,38.88A38.92,38.92,0,0,0,432.25,85.67Zm0,60.06a20.19,20.19,0,1,1,0-40.38,19.75,19.75,0,0,1,20.19,20.19A20.22,20.22,0,0,1,432.25,145.73Zm0-39.38a19.19,19.19,0,1,0,19.19,19.19C451.44,114.42,443.37,106.35,432.25,106.35Z" transform="translate(0.5 -1.96)"/><rect x="114.13" y="67.39" width="19.69" height="114.21" transform="translate(-42.26 177.93) rotate(-63.5)"/><path class="cls-1" d="M170.91,159.46,67.81,108.05,77,89.53l103.1,51.41ZM69.15,107.6l101.31,50.52,8.34-16.73L77.49,90.87Z" transform="translate(0.5 -1.96)"/><rect x="203.2" y="91.44" width="99.45" height="19.69" transform="translate(16.8 234.37) rotate(-51.54)"/><path class="cls-1" d="M229.79,147.05l-16.2-12.87,62.48-78.66,16.2,12.88-.31.39ZM215,134l14.64,11.62,61.24-77.08L276.23,56.93Z" transform="translate(0.5 -1.96)"/><rect x="359.21" y="33.62" width="19.69" height="91.57" transform="translate(91.95 333.27) rotate(-54.8)"/><path class="cls-1" d="M400.92,114.54,325.27,61.19,337.2,44.28l75.65,53.35Zm-74.25-53.6,74,52.21,10.78-15.27-74-52.21Z" transform="translate(0.5 -1.96)"/><path class="cls-2" d="M0,241.72V470.15H78.77V241.72ZM59.08,450.46H19.69v-189H59.08Z" transform="translate(0.5 -1.96)"/><path class="cls-2" d="M0,241.72V470.15H78.77V241.72ZM59.08,450.46H19.69v-189H59.08Z" transform="translate(0.5 -1.96)"/><path class="cls-2" d="M79.27,470.65H-.5V241.22H79.27Zm-78.77-1H78.27V242.22H.5ZM59.58,451H19.19v-190H59.58Zm-39.39-1H58.58v-188H20.19Z" transform="translate(0.5 -1.96)"/><path class="cls-2" d="M131.94,273.23V470.15h78.77V273.23ZM191,450.46H151.63V292.92H191Z" transform="translate(0.5 -1.96)"/><path class="cls-2" d="M131.94,273.23V470.15h78.77V273.23ZM191,450.46H151.63V292.92H191Z" transform="translate(0.5 -1.96)"/><path class="cls-2" d="M211.21,470.65H131.44V272.73h79.77Zm-78.77-1h77.77V273.73H132.44ZM191.52,451H151.13V292.42h40.39Zm-39.39-1h38.39V293.42H152.13Z" transform="translate(0.5 -1.96)"/><path class="cls-2" d="M262.89,200.37V470.15h78.77V200.37ZM322,450.46H282.58V220.06H322Z" transform="translate(0.5 -1.96)"/><path class="cls-2" d="M262.89,200.37V470.15h78.77V200.37ZM322,450.46H282.58V220.06H322Z" transform="translate(0.5 -1.96)"/><path class="cls-2" d="M342.16,470.65H262.39V199.87h79.77Zm-78.77-1h77.77V200.87H263.39ZM322.47,451H282.08V219.56h40.39Zm-39.39-1h38.39V220.56H283.08Z" transform="translate(0.5 -1.96)"/><path class="cls-2" d="M393.85,214.15v256h78.76v-256Zm59.07,236.31H413.54V233.85h39.38Z" transform="translate(0.5 -1.96)"/><path class="cls-2" d="M393.85,214.15v256h78.76v-256Zm59.07,236.31H413.54V233.85h39.38Z" transform="translate(0.5 -1.96)"/><path class="cls-2" d="M473.12,470.65H393.35v-257h79.77Zm-78.77-1h77.77v-255H394.35ZM453.42,451H413V233.35h40.38ZM414,450h38.38V234.35H414Z" transform="translate(0.5 -1.96)"/><path class="cls-2" d="M40.37,47.75C17.72,47.75,0,65.48,0,87.14s17.72,39.38,40.37,39.38c21.66,0,40.37-17.72,40.37-39.38S63,47.75,40.37,47.75Zm0,59.08c-11.82,0-20.68-8.86-20.68-19.69s8.86-19.69,20.68-19.69c10.83,0,20.68,8.86,20.68,19.69S52.19,106.83,40.37,106.83Z" transform="translate(0.5 -1.96)"/><path class="cls-2" d="M40.37,47.75C17.72,47.75,0,65.48,0,87.14s17.72,39.38,40.37,39.38c21.66,0,40.37-17.72,40.37-39.38S63,47.75,40.37,47.75Zm0,59.08c-11.82,0-20.68-8.86-20.68-19.69s8.86-19.69,20.68-19.69c10.83,0,20.68,8.86,20.68,19.69S52.19,106.83,40.37,106.83Z" transform="translate(0.5 -1.96)"/><path class="cls-2" d="M40.37,127C17.83,127-.5,109.13-.5,87.14S17.83,47.25,40.37,47.25A41.1,41.1,0,0,1,69.4,59,39.24,39.24,0,0,1,81.24,87.14C81.24,108.76,62.52,127,40.37,127Zm0-78.77C18.39,48.25.5,65.7.5,87.14S18.39,126,40.37,126c21.61,0,39.87-17.8,39.87-38.88A38.25,38.25,0,0,0,68.7,59.68,40.11,40.11,0,0,0,40.37,48.25Zm0,59.08c-11.88,0-21.18-8.87-21.18-20.19S28.49,67,40.37,67c11.28,0,21.18,9.43,21.18,20.19C61.55,98.46,52.24,107.33,40.37,107.33Zm0-39.38c-11.32,0-20.18,8.43-20.18,19.19s8.86,19.19,20.18,19.19S60.55,97.9,60.55,87.14C60.55,76.92,51.12,68,40.37,68Z" transform="translate(0.5 -1.96)"/><path class="cls-2" d="M201.85,126.52a37.42,37.42,0,1,0,37.41,37.42A37.4,37.4,0,0,0,201.85,126.52Zm0,56.13a17.73,17.73,0,1,1,17.72-17.73A17.66,17.66,0,0,1,201.85,182.65Z" transform="translate(0.5 -1.96)"/><path class="cls-2" d="M201.85,126.52a37.42,37.42,0,1,0,37.41,37.42A37.4,37.4,0,0,0,201.85,126.52Zm0,56.13a17.73,17.73,0,1,1,17.72-17.73A17.66,17.66,0,0,1,201.85,182.65Z" transform="translate(0.5 -1.96)"/><path class="cls-2" d="M201.85,201.85a37.92,37.92,0,1,1,37.91-37.91A38,38,0,0,1,201.85,201.85Zm0-74.83A36.91,36.91,0,1,0,228,137.83,37,37,0,0,0,201.85,127Zm0,56.13a18.23,18.23,0,1,1,18.22-18.23A18.25,18.25,0,0,1,201.85,183.15Zm0-35.45a17.23,17.23,0,1,0,17.22,17.22A17.25,17.25,0,0,0,201.85,147.7Z" transform="translate(0.5 -1.96)"/><path class="cls-2" d="M306.21,2.46A39.39,39.39,0,1,0,345.6,41.85,39.5,39.5,0,0,0,306.21,2.46Zm0,60.06a19.69,19.69,0,1,1,19.7-19.69A19.75,19.75,0,0,1,306.21,62.52Z" transform="translate(0.5 -1.96)"/><path class="cls-2" d="M306.21,2.46A39.39,39.39,0,1,0,345.6,41.85,39.5,39.5,0,0,0,306.21,2.46Zm0,60.06a19.69,19.69,0,1,1,19.7-19.69A19.75,19.75,0,0,1,306.21,62.52Z" transform="translate(0.5 -1.96)"/><path class="cls-2" d="M306.21,81.73A39.89,39.89,0,1,1,346.1,41.85,39.93,39.93,0,0,1,306.21,81.73Zm0-78.77A38.89,38.89,0,1,0,345.1,41.85,38.93,38.93,0,0,0,306.21,3Zm0,60.06a20.19,20.19,0,1,1,20.2-20.19A20.22,20.22,0,0,1,306.21,63Zm0-39.38a19.19,19.19,0,1,0,19.2,19.19A19.21,19.21,0,0,0,306.21,23.64Z" transform="translate(0.5 -1.96)"/><path class="cls-2" d="M432.25,85.17a39.39,39.39,0,1,0,39.38,39.38A39.5,39.5,0,0,0,432.25,85.17Zm0,60.06a19.69,19.69,0,1,1,0-39.38c10.83,0,19.69,7.87,19.69,19.69A19.75,19.75,0,0,1,432.25,145.23Z" transform="translate(0.5 -1.96)"/><path class="cls-2" d="M432.25,85.17a39.39,39.39,0,1,0,39.38,39.38A39.5,39.5,0,0,0,432.25,85.17Zm0,60.06a19.69,19.69,0,1,1,0-39.38c10.83,0,19.69,7.87,19.69,19.69A19.75,19.75,0,0,1,432.25,145.23Z" transform="translate(0.5 -1.96)"/><path class="cls-2" d="M432.25,164.44a39.89,39.89,0,1,1,39.88-39.89A39.93,39.93,0,0,1,432.25,164.44Zm0-78.77a38.89,38.89,0,1,0,38.88,38.88A38.92,38.92,0,0,0,432.25,85.67Zm0,60.06a20.19,20.19,0,1,1,0-40.38,19.75,19.75,0,0,1,20.19,20.19A20.22,20.22,0,0,1,432.25,145.73Zm0-39.38a19.19,19.19,0,1,0,19.19,19.19C451.44,114.42,443.37,106.35,432.25,106.35Z" transform="translate(0.5 -1.96)"/><rect class="cls-3" x="114.13" y="67.39" width="19.69" height="114.21" transform="translate(-42.26 177.93) rotate(-63.5)"/><rect class="cls-3" x="114.13" y="67.39" width="19.69" height="114.21" transform="translate(-42.26 177.93) rotate(-63.5)"/><path class="cls-2" d="M170.91,159.46,67.81,108.05,77,89.53l103.1,51.41ZM69.15,107.6l101.31,50.52,8.34-16.73L77.49,90.87Z" transform="translate(0.5 -1.96)"/><rect class="cls-4" x="203.2" y="91.44" width="99.45" height="19.69" transform="translate(16.8 234.37) rotate(-51.54)"/><rect class="cls-4" x="203.2" y="91.44" width="99.45" height="19.69" transform="translate(16.8 234.37) rotate(-51.54)"/><path class="cls-2" d="M229.79,147.05l-16.2-12.87,62.48-78.66,16.2,12.88-.31.39ZM215,134l14.64,11.62,61.24-77.08L276.23,56.93Z" transform="translate(0.5 -1.96)"/><rect class="cls-5" x="359.21" y="33.62" width="19.69" height="91.57" transform="translate(91.95 333.27) rotate(-54.8)"/><rect class="cls-5" x="359.21" y="33.62" width="19.69" height="91.57" transform="translate(91.95 333.27) rotate(-54.8)"/><path class="cls-2" d="M400.92,114.54,325.27,61.19,337.2,44.28l75.65,53.35Zm-74.25-53.6,74,52.21,10.78-15.27-74-52.21Z" transform="translate(0.5 -1.96)"/></svg>